<?xml version="1.0" encoding="iso-8859-1"?>
<!-- Generator: Adobe Illustrator 19.0.0, SVG Export Plug-In . SVG Version: 6.00 Build 0)  -->
<svg version="1.1" id="Layer_1" xmlns="http://www.w3.org/2000/svg" xmlns:xlink="http://www.w3.org/1999/xlink" x="0px" y="0px"
	 viewBox="0 0 512 512" style="enable-background:new 0 0 512 512;" xml:space="preserve">
<g>
	<g>
		<polygon points="200.348,0 33.391,0 0,0 0,33.391 0,200.348 0,233.739 33.391,233.739 200.348,233.739 233.739,233.739 
			233.739,200.348 233.739,33.391 233.739,0 		"/>
	</g>
</g>
<g>
	<g>
		<polygon points="478.609,0 311.652,0 278.261,0 278.261,33.391 278.261,200.348 278.261,233.739 311.652,233.739 478.609,233.739 
			512,233.739 512,200.348 512,33.391 512,0 		"/>
	</g>
</g>
<g>
	<g>
		<polygon points="200.348,278.261 33.391,278.261 0,278.261 0,311.652 0,478.609 0,512 33.391,512 200.348,512 233.739,512 
			233.739,478.609 233.739,311.652 233.739,278.261 		"/>
	</g>
</g>
<g>
	<g>
		<polygon points="478.609,278.261 311.652,278.261 278.261,278.261 278.261,311.652 278.261,478.609 278.261,512 311.652,512 
			478.609,512 512,512 512,478.609 512,311.652 512,278.261 		"/>
	</g>
</g>
<g>
</g>
<g>
</g>
<g>
</g>
<g>
</g>
<g>
</g>
<g>
</g>
<g>
</g>
<g>
</g>
<g>
</g>
<g>
</g>
<g>
</g>
<g>
</g>
<g>
</g>
<g>
</g>
<g>
</g>
</svg>
